<mxfile host="app.diagrams.net" modified="2021-10-04T14:10:57.932Z" agent="5.0 (Windows NT 10.0; Win64; x64) AppleWebKit/537.36 (KHTML, like Gecko) Chrome/93.0.4577.82 Safari/537.36" etag="AWUNrUzsOYPpZ2ryFsGj" version="15.4.1" type="github" pages="3">
  <diagram id="UEGnwN-ugVfqFI7AvZVh" name="Page-1">
    <mxGraphModel dx="868" dy="488" grid="1" gridSize="10" guides="1" tooltips="1" connect="1" arrows="1" fold="1" page="1" pageScale="1" pageWidth="850" pageHeight="1100" math="0" shadow="0">
      <root>
        <object label="" id="0">
          <mxCell />
        </object>
        <mxCell id="1" parent="0" />
        <mxCell id="44ZIL1ZWgstRTRD0sJb3-10" value="Response" style="text;html=1;align=center;verticalAlign=middle;resizable=0;points=[];autosize=1;strokeColor=none;fillColor=none;" vertex="1" parent="1">
          <mxGeometry x="360" y="95" width="70" height="20" as="geometry" />
        </mxCell>
        <mxCell id="l8hBePsGyEVdV8t5jB_f-1" value="" style="group" vertex="1" connectable="0" parent="1">
          <mxGeometry x="80" y="105" width="440" height="65" as="geometry" />
        </mxCell>
        <mxCell id="44ZIL1ZWgstRTRD0sJb3-1" value="User" style="rounded=0;whiteSpace=wrap;html=1;" vertex="1" parent="l8hBePsGyEVdV8t5jB_f-1">
          <mxGeometry y="5" width="100" height="50" as="geometry" />
        </mxCell>
        <mxCell id="44ZIL1ZWgstRTRD0sJb3-2" value="" style="html=1;shadow=0;dashed=0;align=center;verticalAlign=middle;shape=mxgraph.arrows2.twoWayArrow;dy=0.65;dx=22;" vertex="1" parent="l8hBePsGyEVdV8t5jB_f-1">
          <mxGeometry x="100" y="25" width="70" height="10" as="geometry" />
        </mxCell>
        <mxCell id="44ZIL1ZWgstRTRD0sJb3-3" value="Interact" style="text;html=1;align=center;verticalAlign=middle;resizable=0;points=[];autosize=1;strokeColor=none;fillColor=none;" vertex="1" parent="l8hBePsGyEVdV8t5jB_f-1">
          <mxGeometry x="105" y="5" width="60" height="20" as="geometry" />
        </mxCell>
        <mxCell id="44ZIL1ZWgstRTRD0sJb3-5" value="Dynamic Workflow&lt;br&gt;Engine" style="rounded=0;whiteSpace=wrap;html=1;" vertex="1" parent="l8hBePsGyEVdV8t5jB_f-1">
          <mxGeometry x="170" width="120" height="60" as="geometry" />
        </mxCell>
        <mxCell id="44ZIL1ZWgstRTRD0sJb3-6" value="" style="shape=singleArrow;whiteSpace=wrap;html=1;" vertex="1" parent="l8hBePsGyEVdV8t5jB_f-1">
          <mxGeometry x="290" y="10" width="50" height="10" as="geometry" />
        </mxCell>
        <mxCell id="44ZIL1ZWgstRTRD0sJb3-8" value="" style="shape=singleArrow;direction=west;whiteSpace=wrap;html=1;" vertex="1" parent="l8hBePsGyEVdV8t5jB_f-1">
          <mxGeometry x="290" y="35" width="50" height="10" as="geometry" />
        </mxCell>
        <mxCell id="44ZIL1ZWgstRTRD0sJb3-9" value="Dynamic Process" style="rounded=0;whiteSpace=wrap;html=1;" vertex="1" parent="l8hBePsGyEVdV8t5jB_f-1">
          <mxGeometry x="340" width="100" height="60" as="geometry" />
        </mxCell>
        <mxCell id="44ZIL1ZWgstRTRD0sJb3-11" value="Request" style="text;html=1;align=center;verticalAlign=middle;resizable=0;points=[];autosize=1;strokeColor=none;fillColor=none;" vertex="1" parent="l8hBePsGyEVdV8t5jB_f-1">
          <mxGeometry x="285" y="45" width="60" height="20" as="geometry" />
        </mxCell>
        <mxCell id="93apKYuiVm2_An5Tt1Gn-1" value="" style="group" vertex="1" connectable="0" parent="1">
          <mxGeometry x="140" y="310" width="435" height="210" as="geometry" />
        </mxCell>
        <mxCell id="93apKYuiVm2_An5Tt1Gn-2" value="Database" style="ellipse;whiteSpace=wrap;html=1;align=center;newEdgeStyle={&quot;edgeStyle&quot;:&quot;entityRelationEdgeStyle&quot;,&quot;startArrow&quot;:&quot;none&quot;,&quot;endArrow&quot;:&quot;none&quot;,&quot;segment&quot;:10,&quot;curved&quot;:1};treeFolding=1;treeMoving=1;" vertex="1" parent="93apKYuiVm2_An5Tt1Gn-1">
          <mxGeometry x="310" y="170" width="100" height="40" as="geometry" />
        </mxCell>
        <mxCell id="93apKYuiVm2_An5Tt1Gn-3" value="" style="group" vertex="1" connectable="0" parent="93apKYuiVm2_An5Tt1Gn-1">
          <mxGeometry width="435" height="130" as="geometry" />
        </mxCell>
        <mxCell id="93apKYuiVm2_An5Tt1Gn-4" value="User" style="rounded=0;whiteSpace=wrap;html=1;" vertex="1" parent="93apKYuiVm2_An5Tt1Gn-3">
          <mxGeometry y="10" width="100" height="50" as="geometry" />
        </mxCell>
        <mxCell id="93apKYuiVm2_An5Tt1Gn-5" value="" style="html=1;shadow=0;dashed=0;align=center;verticalAlign=middle;shape=mxgraph.arrows2.twoWayArrow;dy=0.65;dx=22;" vertex="1" parent="93apKYuiVm2_An5Tt1Gn-3">
          <mxGeometry x="100" y="30" width="70" height="10" as="geometry" />
        </mxCell>
        <mxCell id="93apKYuiVm2_An5Tt1Gn-6" value="Interact" style="text;html=1;align=center;verticalAlign=middle;resizable=0;points=[];autosize=1;strokeColor=none;fillColor=none;" vertex="1" parent="93apKYuiVm2_An5Tt1Gn-3">
          <mxGeometry x="105" y="10" width="60" height="20" as="geometry" />
        </mxCell>
        <mxCell id="93apKYuiVm2_An5Tt1Gn-7" value="Dynamic Workflow&lt;br&gt;Engine" style="rounded=0;whiteSpace=wrap;html=1;" vertex="1" parent="93apKYuiVm2_An5Tt1Gn-3">
          <mxGeometry x="165" y="5" width="120" height="60" as="geometry" />
        </mxCell>
        <mxCell id="93apKYuiVm2_An5Tt1Gn-8" value="Response" style="text;html=1;align=center;verticalAlign=middle;resizable=0;points=[];autosize=1;strokeColor=none;fillColor=none;" vertex="1" parent="93apKYuiVm2_An5Tt1Gn-3">
          <mxGeometry x="275" width="70" height="20" as="geometry" />
        </mxCell>
        <mxCell id="93apKYuiVm2_An5Tt1Gn-9" value="" style="shape=singleArrow;whiteSpace=wrap;html=1;" vertex="1" parent="93apKYuiVm2_An5Tt1Gn-3">
          <mxGeometry x="285" y="20" width="50" height="10" as="geometry" />
        </mxCell>
        <mxCell id="93apKYuiVm2_An5Tt1Gn-10" value="" style="shape=singleArrow;direction=west;whiteSpace=wrap;html=1;" vertex="1" parent="93apKYuiVm2_An5Tt1Gn-3">
          <mxGeometry x="285" y="40" width="50" height="10" as="geometry" />
        </mxCell>
        <mxCell id="93apKYuiVm2_An5Tt1Gn-11" value="Request" style="text;html=1;align=center;verticalAlign=middle;resizable=0;points=[];autosize=1;strokeColor=none;fillColor=none;" vertex="1" parent="93apKYuiVm2_An5Tt1Gn-3">
          <mxGeometry x="280" y="50" width="60" height="20" as="geometry" />
        </mxCell>
        <mxCell id="93apKYuiVm2_An5Tt1Gn-12" value="Dynamic Process" style="rounded=0;whiteSpace=wrap;html=1;" vertex="1" parent="93apKYuiVm2_An5Tt1Gn-3">
          <mxGeometry x="335" y="5" width="100" height="60" as="geometry" />
        </mxCell>
        <mxCell id="93apKYuiVm2_An5Tt1Gn-13" value="" style="endArrow=classic;html=1;rounded=0;edgeStyle=orthogonalEdgeStyle;exitX=0.28;exitY=0.025;exitDx=0;exitDy=0;exitPerimeter=0;" edge="1" parent="93apKYuiVm2_An5Tt1Gn-3" source="93apKYuiVm2_An5Tt1Gn-2">
          <mxGeometry width="50" height="50" relative="1" as="geometry">
            <mxPoint x="330" y="100" as="sourcePoint" />
            <mxPoint x="80" y="60" as="targetPoint" />
            <Array as="points">
              <mxPoint x="338" y="110" />
              <mxPoint x="80" y="110" />
              <mxPoint x="80" y="60" />
            </Array>
          </mxGeometry>
        </mxCell>
        <mxCell id="93apKYuiVm2_An5Tt1Gn-14" value="Reject Approve" style="text;html=1;align=center;verticalAlign=middle;resizable=0;points=[];autosize=1;strokeColor=none;fillColor=none;" vertex="1" parent="93apKYuiVm2_An5Tt1Gn-3">
          <mxGeometry x="110" y="110" width="100" height="20" as="geometry" />
        </mxCell>
        <mxCell id="93apKYuiVm2_An5Tt1Gn-15" style="edgeStyle=orthogonalEdgeStyle;rounded=0;orthogonalLoop=1;jettySize=auto;html=1;exitX=0.25;exitY=1;exitDx=0;exitDy=0;entryX=0.5;entryY=0;entryDx=0;entryDy=0;" edge="1" parent="93apKYuiVm2_An5Tt1Gn-1" source="93apKYuiVm2_An5Tt1Gn-12" target="93apKYuiVm2_An5Tt1Gn-2">
          <mxGeometry relative="1" as="geometry" />
        </mxCell>
      </root>
    </mxGraphModel>
  </diagram>
  <diagram id="3SpVcZwLAHOVSdHEmaA_" name="Page-2">
    <mxGraphModel dx="864" dy="488" grid="1" gridSize="10" guides="1" tooltips="1" connect="1" arrows="1" fold="1" page="1" pageScale="1" pageWidth="850" pageHeight="1100" math="0" shadow="0">
      <root>
        <mxCell id="_AUkP2BJLqDRCS8K3Svc-0" />
        <mxCell id="_AUkP2BJLqDRCS8K3Svc-1" parent="_AUkP2BJLqDRCS8K3Svc-0" />
        <mxCell id="rnRLJ6U9j0WjV_pRXMxZ-32" value="" style="group" vertex="1" connectable="0" parent="_AUkP2BJLqDRCS8K3Svc-1">
          <mxGeometry x="300" y="40" width="290" height="550" as="geometry" />
        </mxCell>
        <mxCell id="rnRLJ6U9j0WjV_pRXMxZ-10" style="edgeStyle=orthogonalEdgeStyle;rounded=0;orthogonalLoop=1;jettySize=auto;html=1;" edge="1" parent="rnRLJ6U9j0WjV_pRXMxZ-32" source="rnRLJ6U9j0WjV_pRXMxZ-9">
          <mxGeometry relative="1" as="geometry">
            <mxPoint x="110" y="120" as="targetPoint" />
          </mxGeometry>
        </mxCell>
        <mxCell id="rnRLJ6U9j0WjV_pRXMxZ-28" style="edgeStyle=orthogonalEdgeStyle;rounded=0;orthogonalLoop=1;jettySize=auto;html=1;" edge="1" parent="rnRLJ6U9j0WjV_pRXMxZ-32" target="rnRLJ6U9j0WjV_pRXMxZ-11">
          <mxGeometry relative="1" as="geometry">
            <mxPoint x="190" y="160" as="sourcePoint" />
          </mxGeometry>
        </mxCell>
        <mxCell id="rnRLJ6U9j0WjV_pRXMxZ-9" value="Initiate&lt;br&gt;Workflow" style="ellipse;whiteSpace=wrap;html=1;aspect=fixed;" vertex="1" parent="rnRLJ6U9j0WjV_pRXMxZ-32">
          <mxGeometry x="70" width="80" height="80" as="geometry" />
        </mxCell>
        <mxCell id="rnRLJ6U9j0WjV_pRXMxZ-12" style="edgeStyle=orthogonalEdgeStyle;rounded=0;orthogonalLoop=1;jettySize=auto;html=1;exitX=0.5;exitY=1;exitDx=0;exitDy=0;" edge="1" parent="rnRLJ6U9j0WjV_pRXMxZ-32" source="rnRLJ6U9j0WjV_pRXMxZ-11">
          <mxGeometry relative="1" as="geometry">
            <mxPoint x="110" y="240" as="targetPoint" />
          </mxGeometry>
        </mxCell>
        <mxCell id="rnRLJ6U9j0WjV_pRXMxZ-11" value="Review&lt;br&gt;Document" style="rounded=1;whiteSpace=wrap;html=1;" vertex="1" parent="rnRLJ6U9j0WjV_pRXMxZ-32">
          <mxGeometry x="60" y="120" width="100" height="80" as="geometry" />
        </mxCell>
        <mxCell id="rnRLJ6U9j0WjV_pRXMxZ-16" style="edgeStyle=orthogonalEdgeStyle;rounded=0;orthogonalLoop=1;jettySize=auto;html=1;exitX=0.5;exitY=1;exitDx=0;exitDy=0;" edge="1" parent="rnRLJ6U9j0WjV_pRXMxZ-32" source="rnRLJ6U9j0WjV_pRXMxZ-13">
          <mxGeometry relative="1" as="geometry">
            <mxPoint x="110" y="350" as="targetPoint" />
          </mxGeometry>
        </mxCell>
        <mxCell id="rnRLJ6U9j0WjV_pRXMxZ-17" style="edgeStyle=orthogonalEdgeStyle;rounded=0;orthogonalLoop=1;jettySize=auto;html=1;exitX=1;exitY=0.5;exitDx=0;exitDy=0;" edge="1" parent="rnRLJ6U9j0WjV_pRXMxZ-32" source="rnRLJ6U9j0WjV_pRXMxZ-13">
          <mxGeometry relative="1" as="geometry">
            <mxPoint x="180" y="275" as="targetPoint" />
            <Array as="points">
              <mxPoint x="170" y="275" />
              <mxPoint x="170" y="275" />
            </Array>
          </mxGeometry>
        </mxCell>
        <mxCell id="rnRLJ6U9j0WjV_pRXMxZ-13" value="" style="rhombus;whiteSpace=wrap;html=1;" vertex="1" parent="rnRLJ6U9j0WjV_pRXMxZ-32">
          <mxGeometry x="80" y="240" width="60" height="70" as="geometry" />
        </mxCell>
        <mxCell id="rnRLJ6U9j0WjV_pRXMxZ-14" value="" style="shape=umlDestroy;whiteSpace=wrap;html=1;strokeWidth=3;" vertex="1" parent="rnRLJ6U9j0WjV_pRXMxZ-32">
          <mxGeometry x="95" y="260" width="30" height="30" as="geometry" />
        </mxCell>
        <mxCell id="rnRLJ6U9j0WjV_pRXMxZ-15" value="Document&lt;br&gt;Approved ?" style="text;html=1;align=center;verticalAlign=middle;resizable=0;points=[];autosize=1;strokeColor=none;fillColor=none;" vertex="1" parent="rnRLJ6U9j0WjV_pRXMxZ-32">
          <mxGeometry y="260" width="80" height="30" as="geometry" />
        </mxCell>
        <mxCell id="rnRLJ6U9j0WjV_pRXMxZ-18" value="Yes" style="text;html=1;align=center;verticalAlign=middle;resizable=0;points=[];autosize=1;strokeColor=none;fillColor=none;" vertex="1" parent="rnRLJ6U9j0WjV_pRXMxZ-32">
          <mxGeometry x="105" y="320" width="40" height="20" as="geometry" />
        </mxCell>
        <mxCell id="rnRLJ6U9j0WjV_pRXMxZ-20" value="No" style="text;html=1;align=center;verticalAlign=middle;resizable=0;points=[];autosize=1;strokeColor=none;fillColor=none;" vertex="1" parent="rnRLJ6U9j0WjV_pRXMxZ-32">
          <mxGeometry x="140" y="250" width="30" height="20" as="geometry" />
        </mxCell>
        <mxCell id="rnRLJ6U9j0WjV_pRXMxZ-22" style="edgeStyle=orthogonalEdgeStyle;rounded=0;orthogonalLoop=1;jettySize=auto;html=1;" edge="1" parent="rnRLJ6U9j0WjV_pRXMxZ-32" source="rnRLJ6U9j0WjV_pRXMxZ-21">
          <mxGeometry relative="1" as="geometry">
            <mxPoint x="235" y="200" as="targetPoint" />
          </mxGeometry>
        </mxCell>
        <mxCell id="rnRLJ6U9j0WjV_pRXMxZ-21" value="Notify document rejected" style="rounded=1;whiteSpace=wrap;html=1;" vertex="1" parent="rnRLJ6U9j0WjV_pRXMxZ-32">
          <mxGeometry x="180" y="245" width="110" height="60" as="geometry" />
        </mxCell>
        <mxCell id="rnRLJ6U9j0WjV_pRXMxZ-23" value="Modify&amp;nbsp;&lt;br&gt;Document" style="rounded=1;whiteSpace=wrap;html=1;" vertex="1" parent="rnRLJ6U9j0WjV_pRXMxZ-32">
          <mxGeometry x="190" y="140" width="90" height="60" as="geometry" />
        </mxCell>
        <mxCell id="rnRLJ6U9j0WjV_pRXMxZ-30" style="edgeStyle=orthogonalEdgeStyle;rounded=0;orthogonalLoop=1;jettySize=auto;html=1;" edge="1" parent="rnRLJ6U9j0WjV_pRXMxZ-32" source="rnRLJ6U9j0WjV_pRXMxZ-29">
          <mxGeometry relative="1" as="geometry">
            <mxPoint x="110" y="480" as="targetPoint" />
          </mxGeometry>
        </mxCell>
        <mxCell id="rnRLJ6U9j0WjV_pRXMxZ-29" value="Notify Document Approved" style="rounded=1;whiteSpace=wrap;html=1;" vertex="1" parent="rnRLJ6U9j0WjV_pRXMxZ-32">
          <mxGeometry x="60" y="350" width="100" height="80" as="geometry" />
        </mxCell>
        <mxCell id="rnRLJ6U9j0WjV_pRXMxZ-31" value="Document&lt;br&gt;Approved" style="ellipse;whiteSpace=wrap;html=1;aspect=fixed;" vertex="1" parent="rnRLJ6U9j0WjV_pRXMxZ-32">
          <mxGeometry x="75" y="480" width="70" height="70" as="geometry" />
        </mxCell>
      </root>
    </mxGraphModel>
  </diagram>
  <diagram id="P29fr3RbCxek8pIcF6sE" name="Page-3">
    <mxGraphModel dx="864" dy="488" grid="1" gridSize="10" guides="1" tooltips="1" connect="1" arrows="1" fold="1" page="1" pageScale="1" pageWidth="850" pageHeight="1100" math="0" shadow="0">
      <root>
        <mxCell id="sGKW3NgeyBqjiv_NgHeV-0" />
        <mxCell id="sGKW3NgeyBqjiv_NgHeV-1" parent="sGKW3NgeyBqjiv_NgHeV-0" />
        <mxCell id="vNosEgudeJ2ArzzC27s2-17" value="" style="group" vertex="1" connectable="0" parent="sGKW3NgeyBqjiv_NgHeV-1">
          <mxGeometry x="120" y="20" width="550" height="730" as="geometry" />
        </mxCell>
        <mxCell id="sGKW3NgeyBqjiv_NgHeV-2" value="Workflow starts on multiple documents by initiator" style="ellipse;whiteSpace=wrap;html=1;aspect=fixed;" vertex="1" parent="vNosEgudeJ2ArzzC27s2-17">
          <mxGeometry x="200" width="80" height="80" as="geometry" />
        </mxCell>
        <mxCell id="A5vRoveh1nhluyTZwHdh-3" value="Documents not approved&lt;br&gt;by first participant for &lt;br&gt;approval. workflow restarts&lt;br&gt;at activity 1" style="text;html=1;align=center;verticalAlign=middle;resizable=0;points=[];autosize=1;strokeColor=none;fillColor=none;" vertex="1" parent="vNosEgudeJ2ArzzC27s2-17">
          <mxGeometry x="390" y="290" width="160" height="60" as="geometry" />
        </mxCell>
        <mxCell id="A5vRoveh1nhluyTZwHdh-20" value="Documents Approved&amp;nbsp;&lt;br&gt;by all participants.&lt;br&gt;workflow is complete&lt;br&gt;" style="text;html=1;align=center;verticalAlign=middle;resizable=0;points=[];autosize=1;strokeColor=none;fillColor=none;" vertex="1" parent="vNosEgudeJ2ArzzC27s2-17">
          <mxGeometry x="190" y="680" width="130" height="50" as="geometry" />
        </mxCell>
        <mxCell id="vNosEgudeJ2ArzzC27s2-0" value="Workflow Notifications" style="text;html=1;align=center;verticalAlign=middle;resizable=0;points=[];autosize=1;strokeColor=none;fillColor=none;" vertex="1" parent="vNosEgudeJ2ArzzC27s2-17">
          <mxGeometry y="60" width="130" height="20" as="geometry" />
        </mxCell>
        <mxCell id="vNosEgudeJ2ArzzC27s2-3" value="Notification" style="rounded=1;whiteSpace=wrap;html=1;" vertex="1" parent="vNosEgudeJ2ArzzC27s2-17">
          <mxGeometry x="30" y="120" width="70" height="50" as="geometry" />
        </mxCell>
        <mxCell id="vNosEgudeJ2ArzzC27s2-4" value="Notification" style="rounded=1;whiteSpace=wrap;html=1;" vertex="1" parent="vNosEgudeJ2ArzzC27s2-17">
          <mxGeometry x="30" y="210" width="70" height="50" as="geometry" />
        </mxCell>
        <mxCell id="vNosEgudeJ2ArzzC27s2-9" value="Notification" style="rounded=1;whiteSpace=wrap;html=1;" vertex="1" parent="vNosEgudeJ2ArzzC27s2-17">
          <mxGeometry x="30" y="290" width="70" height="50" as="geometry" />
        </mxCell>
        <mxCell id="vNosEgudeJ2ArzzC27s2-11" value="Notification" style="rounded=1;whiteSpace=wrap;html=1;" vertex="1" parent="vNosEgudeJ2ArzzC27s2-17">
          <mxGeometry x="30" y="380" width="70" height="50" as="geometry" />
        </mxCell>
        <mxCell id="vNosEgudeJ2ArzzC27s2-13" value="Notification" style="rounded=1;whiteSpace=wrap;html=1;" vertex="1" parent="vNosEgudeJ2ArzzC27s2-17">
          <mxGeometry x="30" y="505" width="70" height="50" as="geometry" />
        </mxCell>
        <mxCell id="vNosEgudeJ2ArzzC27s2-15" value="Notification" style="rounded=1;whiteSpace=wrap;html=1;" vertex="1" parent="vNosEgudeJ2ArzzC27s2-17">
          <mxGeometry x="30" y="620" width="70" height="50" as="geometry" />
        </mxCell>
        <mxCell id="vNosEgudeJ2ArzzC27s2-16" value="" style="group" vertex="1" connectable="0" parent="vNosEgudeJ2ArzzC27s2-17">
          <mxGeometry x="64.5" y="95" width="375.5" height="585" as="geometry" />
        </mxCell>
        <mxCell id="sGKW3NgeyBqjiv_NgHeV-3" style="edgeStyle=orthogonalEdgeStyle;rounded=0;orthogonalLoop=1;jettySize=auto;html=1;" edge="1" parent="vNosEgudeJ2ArzzC27s2-16" source="sGKW3NgeyBqjiv_NgHeV-2">
          <mxGeometry relative="1" as="geometry">
            <mxPoint x="175.5" y="25" as="targetPoint" />
          </mxGeometry>
        </mxCell>
        <mxCell id="sGKW3NgeyBqjiv_NgHeV-4" value="Activity 1: one designated participant must review documents" style="rounded=0;whiteSpace=wrap;html=1;" vertex="1" parent="vNosEgudeJ2ArzzC27s2-16">
          <mxGeometry x="115.5" y="25" width="120" height="60" as="geometry" />
        </mxCell>
        <mxCell id="A5vRoveh1nhluyTZwHdh-9" style="edgeStyle=orthogonalEdgeStyle;rounded=0;orthogonalLoop=1;jettySize=auto;html=1;exitX=1;exitY=0.5;exitDx=0;exitDy=0;" edge="1" parent="vNosEgudeJ2ArzzC27s2-16" source="sGKW3NgeyBqjiv_NgHeV-8">
          <mxGeometry relative="1" as="geometry">
            <mxPoint x="275.5" y="215" as="targetPoint" />
          </mxGeometry>
        </mxCell>
        <mxCell id="A5vRoveh1nhluyTZwHdh-12" style="edgeStyle=orthogonalEdgeStyle;rounded=0;orthogonalLoop=1;jettySize=auto;html=1;" edge="1" parent="vNosEgudeJ2ArzzC27s2-16" source="sGKW3NgeyBqjiv_NgHeV-8">
          <mxGeometry relative="1" as="geometry">
            <mxPoint x="175.5" y="275" as="targetPoint" />
          </mxGeometry>
        </mxCell>
        <mxCell id="sGKW3NgeyBqjiv_NgHeV-8" value="Approval Activity&lt;br&gt;first participant rejects documents" style="rounded=0;whiteSpace=wrap;html=1;" vertex="1" parent="vNosEgudeJ2ArzzC27s2-16">
          <mxGeometry x="115.5" y="195" width="120" height="40" as="geometry" />
        </mxCell>
        <mxCell id="A5vRoveh1nhluyTZwHdh-10" style="edgeStyle=orthogonalEdgeStyle;rounded=0;orthogonalLoop=1;jettySize=auto;html=1;exitX=0;exitY=0;exitDx=20;exitDy=0;exitPerimeter=0;entryX=1;entryY=0.5;entryDx=0;entryDy=0;" edge="1" parent="vNosEgudeJ2ArzzC27s2-16" source="A5vRoveh1nhluyTZwHdh-1" target="sGKW3NgeyBqjiv_NgHeV-4">
          <mxGeometry relative="1" as="geometry">
            <mxPoint x="295.5" y="55" as="targetPoint" />
          </mxGeometry>
        </mxCell>
        <mxCell id="A5vRoveh1nhluyTZwHdh-1" value="" style="shape=note;whiteSpace=wrap;html=1;backgroundOutline=1;darkOpacity=0.05;" vertex="1" parent="vNosEgudeJ2ArzzC27s2-16">
          <mxGeometry x="275.5" y="185" width="50" height="70" as="geometry" />
        </mxCell>
        <mxCell id="A5vRoveh1nhluyTZwHdh-2" value="" style="shape=umlDestroy;whiteSpace=wrap;html=1;strokeWidth=3;" vertex="1" parent="vNosEgudeJ2ArzzC27s2-16">
          <mxGeometry x="285.5" y="215" width="30" height="30" as="geometry" />
        </mxCell>
        <mxCell id="A5vRoveh1nhluyTZwHdh-8" style="edgeStyle=orthogonalEdgeStyle;rounded=0;orthogonalLoop=1;jettySize=auto;html=1;exitX=0.5;exitY=1;exitDx=0;exitDy=0;entryX=0.5;entryY=0;entryDx=0;entryDy=0;" edge="1" parent="vNosEgudeJ2ArzzC27s2-16" source="sGKW3NgeyBqjiv_NgHeV-6" target="sGKW3NgeyBqjiv_NgHeV-8">
          <mxGeometry relative="1" as="geometry" />
        </mxCell>
        <mxCell id="sGKW3NgeyBqjiv_NgHeV-6" value="Activity 2: Two designated participant must review" style="rounded=0;whiteSpace=wrap;html=1;" vertex="1" parent="vNosEgudeJ2ArzzC27s2-16">
          <mxGeometry x="115.5" y="115" width="120" height="50" as="geometry" />
        </mxCell>
        <mxCell id="A5vRoveh1nhluyTZwHdh-7" style="edgeStyle=orthogonalEdgeStyle;rounded=0;orthogonalLoop=1;jettySize=auto;html=1;exitX=0.5;exitY=1;exitDx=0;exitDy=0;entryX=0.5;entryY=0;entryDx=0;entryDy=0;" edge="1" parent="vNosEgudeJ2ArzzC27s2-16" source="sGKW3NgeyBqjiv_NgHeV-4" target="sGKW3NgeyBqjiv_NgHeV-6">
          <mxGeometry relative="1" as="geometry" />
        </mxCell>
        <mxCell id="A5vRoveh1nhluyTZwHdh-11" value="Document Checked out,&lt;br&gt;modified, and&lt;br&gt;checked back in." style="text;html=1;align=center;verticalAlign=middle;resizable=0;points=[];autosize=1;strokeColor=none;fillColor=none;" vertex="1" parent="vNosEgudeJ2ArzzC27s2-16">
          <mxGeometry x="235.5" width="140" height="50" as="geometry" />
        </mxCell>
        <mxCell id="A5vRoveh1nhluyTZwHdh-13" value="Approved" style="shape=note;whiteSpace=wrap;html=1;backgroundOutline=1;darkOpacity=0.05;" vertex="1" parent="vNosEgudeJ2ArzzC27s2-16">
          <mxGeometry x="155.5" y="275" width="60" height="70" as="geometry" />
        </mxCell>
        <mxCell id="A5vRoveh1nhluyTZwHdh-15" style="edgeStyle=orthogonalEdgeStyle;rounded=0;orthogonalLoop=1;jettySize=auto;html=1;" edge="1" parent="vNosEgudeJ2ArzzC27s2-16" source="A5vRoveh1nhluyTZwHdh-14">
          <mxGeometry relative="1" as="geometry">
            <mxPoint x="185.5" y="415" as="targetPoint" />
          </mxGeometry>
        </mxCell>
        <mxCell id="A5vRoveh1nhluyTZwHdh-14" value="Documents Approved &lt;br&gt;by first participant" style="text;html=1;align=center;verticalAlign=middle;resizable=0;points=[];autosize=1;strokeColor=none;fillColor=none;" vertex="1" parent="vNosEgudeJ2ArzzC27s2-16">
          <mxGeometry x="120.5" y="345" width="130" height="30" as="geometry" />
        </mxCell>
        <mxCell id="A5vRoveh1nhluyTZwHdh-17" style="edgeStyle=orthogonalEdgeStyle;rounded=0;orthogonalLoop=1;jettySize=auto;html=1;exitX=0.5;exitY=1;exitDx=0;exitDy=0;" edge="1" parent="vNosEgudeJ2ArzzC27s2-16" source="A5vRoveh1nhluyTZwHdh-16">
          <mxGeometry relative="1" as="geometry">
            <mxPoint x="185.5" y="515" as="targetPoint" />
          </mxGeometry>
        </mxCell>
        <mxCell id="A5vRoveh1nhluyTZwHdh-16" value="Approval Activity: Two participants must approve document" style="rounded=0;whiteSpace=wrap;html=1;" vertex="1" parent="vNosEgudeJ2ArzzC27s2-16">
          <mxGeometry x="125.5" y="415" width="120" height="60" as="geometry" />
        </mxCell>
        <mxCell id="A5vRoveh1nhluyTZwHdh-19" value="Approved" style="shape=note;whiteSpace=wrap;html=1;backgroundOutline=1;darkOpacity=0.05;" vertex="1" parent="vNosEgudeJ2ArzzC27s2-16">
          <mxGeometry x="160.5" y="515" width="60" height="70" as="geometry" />
        </mxCell>
        <mxCell id="vNosEgudeJ2ArzzC27s2-1" style="edgeStyle=orthogonalEdgeStyle;rounded=0;orthogonalLoop=1;jettySize=auto;html=1;" edge="1" parent="vNosEgudeJ2ArzzC27s2-16" source="vNosEgudeJ2ArzzC27s2-0">
          <mxGeometry relative="1" as="geometry">
            <mxPoint x="0.5" y="25" as="targetPoint" />
          </mxGeometry>
        </mxCell>
        <mxCell id="vNosEgudeJ2ArzzC27s2-8" style="edgeStyle=orthogonalEdgeStyle;rounded=0;orthogonalLoop=1;jettySize=auto;html=1;" edge="1" parent="vNosEgudeJ2ArzzC27s2-16" source="vNosEgudeJ2ArzzC27s2-4">
          <mxGeometry relative="1" as="geometry">
            <mxPoint x="0.5" y="195" as="targetPoint" />
          </mxGeometry>
        </mxCell>
        <mxCell id="vNosEgudeJ2ArzzC27s2-5" style="edgeStyle=orthogonalEdgeStyle;rounded=0;orthogonalLoop=1;jettySize=auto;html=1;" edge="1" parent="vNosEgudeJ2ArzzC27s2-16">
          <mxGeometry relative="1" as="geometry">
            <mxPoint y="115" as="targetPoint" />
            <mxPoint y="75" as="sourcePoint" />
          </mxGeometry>
        </mxCell>
        <mxCell id="vNosEgudeJ2ArzzC27s2-10" style="edgeStyle=orthogonalEdgeStyle;rounded=0;orthogonalLoop=1;jettySize=auto;html=1;" edge="1" parent="vNosEgudeJ2ArzzC27s2-16" source="vNosEgudeJ2ArzzC27s2-9">
          <mxGeometry relative="1" as="geometry">
            <mxPoint x="0.5" y="285" as="targetPoint" />
          </mxGeometry>
        </mxCell>
        <mxCell id="vNosEgudeJ2ArzzC27s2-12" style="edgeStyle=orthogonalEdgeStyle;rounded=0;orthogonalLoop=1;jettySize=auto;html=1;entryX=0.5;entryY=0;entryDx=0;entryDy=0;" edge="1" parent="vNosEgudeJ2ArzzC27s2-17" source="vNosEgudeJ2ArzzC27s2-11" target="vNosEgudeJ2ArzzC27s2-13">
          <mxGeometry relative="1" as="geometry">
            <mxPoint x="205" y="520" as="targetPoint" />
          </mxGeometry>
        </mxCell>
        <mxCell id="vNosEgudeJ2ArzzC27s2-14" style="edgeStyle=orthogonalEdgeStyle;rounded=0;orthogonalLoop=1;jettySize=auto;html=1;entryX=0.5;entryY=0;entryDx=0;entryDy=0;" edge="1" parent="vNosEgudeJ2ArzzC27s2-17" source="vNosEgudeJ2ArzzC27s2-13" target="vNosEgudeJ2ArzzC27s2-15">
          <mxGeometry relative="1" as="geometry">
            <mxPoint x="205" y="630" as="targetPoint" />
          </mxGeometry>
        </mxCell>
      </root>
    </mxGraphModel>
  </diagram>
</mxfile>
